<svg xmlns="http://www.w3.org/2000/svg" viewBox="0 0 504 504">
  <path d="M400.494 52.38L56.777 159.401c-7.988 2.495-12.62 11.05-10.124 19.038l16.609 53.425C20.275 245.37-3.626 290.871 9.58 334.065c13.504 42.987 59.005 66.889 102.2 53.681l16.61 53.426c2.495 7.989 11.049 12.62 19.037 10.125l343.717-107.023c7.988-2.495 12.62-11.05 10.124-19.038l-81.781-262.48c-2.452-8.24-10.753-12.828-18.994-10.377zM126.87 297.742c6.834 21.768-5.31 44.875-27.033 51.456-21.768 6.834-44.875-5.31-51.457-27.033-6.833-21.768 5.31-44.875 27.034-51.457 21.768-6.833 44.875 5.31 51.456 27.034z" fill="#d8dee9"/>
  <path d="M387.36 103.29l64.255 206.587-253.83 78.95-64.255-206.589z" fill="#a3be8c"/>
  <path d="M263.944 303.83c3.216-1.045 4.885-4.508 3.877-7.61l-3.807-11.717 4.02-1.307c3.217-1.045 4.886-4.508 3.878-7.61-1.045-3.216-4.393-4.922-7.61-3.877l-4.02 1.306-15.005-46.179c-.746-2.297-2.834-4.032-5.278-4.127-2.481-.21-4.744 1.034-5.907 3.317l-.155.304-20.656 64.243c-.741 2.019-.377 4.313 1.1 6.12 1.513 1.921 4.143 2.59 6.44 1.844l31.706-10.302 3.807 11.717c1.008 3.102 4.393 4.923 7.61 3.878zm-39.389-9.046l.038.115-.038-.115zm4.481-11.616l10.091-36.172 9.667 29.752-19.758 6.42zm90.277-43.684l-4.964-15.278-.038-.115c-4.258-12.714-18.07-19.656-30.821-15.513-12.751 4.143-19.73 17.841-15.703 30.63l.038.114 6.084 18.725 4.927 15.163.037.115c4.258 12.714 17.956 19.693 30.707 15.55 12.75-4.143 19.845-17.878 15.817-30.667l-.038-.115-6.046-18.61zm-13.428 38.018c-6.548 2.128-13.55-1.44-15.714-8.102l-6.01-18.495-4.926-15.163c-2.128-6.548 1.402-13.664 7.95-15.791 6.663-2.165 13.701 1.517 15.828 8.065l6.047 18.61 4.89 15.048c2.164 6.662-1.403 13.664-8.065 15.828zm59.125-50.834c3.519-5.588 4.645-13.066 2.256-20.418-4.18-12.866-17.884-19.082-29.945-15.163-11.143 3.62-18.556 14.03-17.425 26.11 1.045 3.216 3.589 5.183 7.144 4.79 3.248-.166 4.954-3.515 4.673-6.725-.534-5.161 3.714-11.24 9.228-13.032 6.548-2.127 12.9 1.397 14.953 7.715 2.127 6.548-.79 13.592-7.339 15.72-3.33 1.082-4.692 4.318-3.647 7.535 1.007 3.101 4.011 4.92 7.343 3.837 6.547-2.128 13.123 2.086 15.176 8.404 2.09 6.433-1.014 12.903-7.562 15.03-6.318 2.053-12.487-.515-15.61-6.612-.747-2.297-4.785-3.78-7.772-2.809-3.07 1.887-4.009 4.859-2.926 8.19 5.418 10.813 17.789 16.445 29.966 12.489 12.061-3.92 19.196-17.922 15.277-29.983-2.389-7.352-7.621-12.51-13.79-15.078z" style="-inkscape-font-specification:'Arciform Sans'" font-weight="400" font-size="120.785" font-family="Arciform Sans" letter-spacing="0" word-spacing="0" fill="#4c566a"/>
</svg>
