<svg xmlns="http://www.w3.org/2000/svg" viewBox="0 0 504 504">
  <path d="M400.494 52.38L56.777 159.401c-7.988 2.495-12.62 11.05-10.124 19.038l16.609 53.425C20.275 245.37-3.626 290.871 9.58 334.065c13.504 42.987 59.005 66.889 102.2 53.681l16.61 53.426c2.495 7.989 11.049 12.62 19.037 10.125l343.717-107.023c7.988-2.495 12.62-11.05 10.124-19.038l-81.781-262.48c-2.452-8.24-10.753-12.828-18.994-10.377zM126.87 297.742c6.834 21.768-5.31 44.875-27.033 51.456-21.768 6.834-44.875-5.31-51.457-27.033-6.833-21.768 5.31-44.875 27.034-51.457 21.768-6.833 44.875 5.31 51.456 27.034z" fill="#d8dee9"/>
  <path d="M387.36 103.29l64.255 206.587-253.83 78.95-64.255-206.589z" fill="#a3be8c"/>
  <path style="-inkscape-font-specification:'Arciform Sans'" d="M261.075 302.293c3.056-.993 4.642-4.284 3.684-7.231l-3.617-11.134 3.82-1.241c3.057-.994 4.642-4.284 3.685-7.232-.993-3.056-4.175-4.677-7.231-3.684l-3.821 1.241-14.258-43.881c-.71-2.183-2.693-3.832-5.015-3.922-2.358-.2-4.508.982-5.614 3.152l-.147.289-19.628 61.046c-.704 1.918-.358 4.099 1.045 5.815 1.438 1.826 3.938 2.462 6.12 1.753l30.128-9.79 3.618 11.135c.957 2.947 4.175 4.677 7.231 3.684zm-37.429-8.596l.036.11-.036-.11zm4.258-11.038l9.59-34.372 9.185 28.272-18.775 6.1zm85.785-41.509l-4.718-14.519-.035-.109c-4.046-12.08-17.172-18.678-29.288-14.74-12.116 3.936-18.749 16.952-14.92 29.104l.035.11 5.78 17.792 4.683 14.409.035.11c4.046 12.08 17.062 18.712 29.179 14.775 12.116-3.936 18.857-16.988 15.03-29.14l-.036-.11-5.745-17.683zm-12.76 36.126c-6.223 2.021-12.875-1.368-14.932-7.7l-5.71-17.574-4.682-14.408c-2.022-6.222 1.332-12.984 7.554-15.006 6.331-2.057 13.02 1.442 15.041 7.664l5.746 17.683 4.646 14.3c2.057 6.331-1.332 12.984-7.664 15.04zm73.354-11.766c3.056-.993 4.642-4.284 3.685-7.232l-3.618-11.134 3.82-1.241c3.057-.993 4.642-4.284 3.685-7.231-.993-3.057-4.175-4.678-7.231-3.685l-3.82 1.242-14.259-43.882c-.71-2.183-2.693-3.831-5.015-3.921-2.358-.2-4.508.982-5.614 3.151l-.147.29-19.628 61.046c-.704 1.918-.358 4.098 1.045 5.815 1.438 1.826 3.937 2.462 6.12 1.752l30.128-9.789 3.618 11.134c.957 2.948 4.175 4.678 7.23 3.685zm-37.429-8.596l.036.109-.036-.11zm4.258-11.038l9.59-34.372 9.185 28.271-18.775 6.1z" font-weight="400" font-size="44.775" font-family="Arciform Sans" letter-spacing="0" word-spacing="0" fill="#4c566a"/>
</svg>
