<svg xmlns="http://www.w3.org/2000/svg" viewBox="0 0 504 504">
  <circle fill="#434C5E" r="252" cy="252" cx="252"/>
  <path fill="#E5E9F0" d="M423.9 304.1l-64.4-124.8c-1.5-2.9-5.1-4.1-8-2.6l-19.4 10c-8.1-15.6-27.2-21.7-42.9-13.7-15.6 8.1-21.7 27.2-13.7 42.9l-19.4 10c-2.9 1.5-4.1 5.1-2.6 8l64.4 124.8c1.5 2.9 5.1 4.1 8 2.6l95.3-49.2c3-1.5 4.2-5 2.7-8zm-112.8-88.5c-7.9 4.1-17.6 1-21.6-6.9-4.1-7.9-1-17.6 6.9-21.6 7.9-4.1 17.6-1 21.6 6.9 4.1 7.9 1 17.6-6.9 21.6z"/>
  <path d="M403.451 302.503l-75.014 38.68-47.526-92.169 75.015-38.68z" fill="#A3BE8C"/>
  <path fill="#EBCB8B" d="M252.9 173.2c0-41.4-33.5-74.9-74.9-74.9s-74.9 33.5-74.9 74.9c0 34.3 23.1 63.2 54.7 72.1l.5 160.5h40v-12.2h30.4v-19.1H213v-21.7h15.7v-19.1h-30.4v-88.3c31.5-9.1 54.6-37.9 54.6-72.2zm-74.9-6.5c-12.4 0-22.5-10.1-22.5-22.5s10.1-22.5 22.5-22.5 22.5 10.1 22.5 22.5-10.1 22.5-22.5 22.5z"/>
  <path fill="#88C0D0" d="M302.1 208.3c-1.2 0-2.4-.3-3.5-.8l-124.2-61.7c-3.9-1.9-5.5-6.7-3.5-10.6 1.9-3.9 6.7-5.5 10.6-3.5l124.2 61.7c3.9 1.9 5.5 6.7 3.5 10.6-1.4 2.7-4.2 4.3-7.1 4.3z"/>
  <path d="M314.785 269.764c3.392 6.02 9.29 9.77 16.038 10.33 1.61.283 2.754-1.155 2.65-2.683.381-1.338-.952-3.033-2.44-2.987-4.775-.416-9.02-3.247-11.366-7.411-3.872-6.873-1.925-15.506 4.68-19.228 6.558-3.695 15.19-1.024 19.063 5.85 2.516 4.465 2.5 9.696.095 14.158-.81 1.25-.22 2.966 1.004 3.797 1.205.907 3.028.673 3.955-1.04 3.474-5.923 3.39-13.345-.171-19.666-5.428-9.633-17.4-13.53-26.83-8.216-9.19 5.178-12.106 17.464-6.678 27.096zm19.766 35.08c3.393 6.02 9.29 9.77 16.038 10.33 1.61.283 2.755-1.155 2.65-2.683.382-1.338-.952-3.032-2.44-2.987-4.775-.416-9.019-3.247-11.365-7.41-3.873-6.874-1.926-15.507 4.68-19.229 6.558-3.695 15.19-1.024 19.063 5.85 2.516 4.465 2.5 9.696.094 14.158-.81 1.25-.22 2.966 1.004 3.797 1.205.907 3.028.673 3.956-1.04 3.473-5.922 3.39-13.345-.172-19.666-5.427-9.633-17.398-13.53-26.829-8.216-9.19 5.178-12.106 17.464-6.679 27.096z" fill="#4C566A"/>
</svg>
